<svg version="1.1" xmlns="http://www.w3.org/2000/svg" viewBox="0 0 736 522.0000000000001" width="736" height="522.0000000000001" filter="invert(93%) hue-rotate(180deg)">
  <!-- svg-source:excalidraw -->
  
  <defs>
    <style class="style-fonts">
      @font-face {
        font-family: "Virgil";
        src: url("https://excalidraw.com/Virgil.woff2");
      }
      @font-face {
        font-family: "Cascadia";
        src: url("https://excalidraw.com/Cascadia.woff2");
      }
    </style>
    
  </defs>
  <rect x="0" y="0" width="736" height="522.0000000000001" fill="#ffffff"></rect><g stroke-linecap="round" transform="translate(10 10) rotate(0 50 50)"><path d="M48.44 -0.08 C56.29 -1.09, 67.61 1.89, 75 5.96 C82.39 10.04, 88.7 17.26, 92.79 24.35 C96.87 31.45, 99.51 40.07, 99.51 48.53 C99.52 56.98, 96.68 67.6, 92.82 75.1 C88.96 82.6, 83.51 89.24, 76.35 93.53 C69.2 97.83, 58.34 100.97, 49.89 100.87 C41.45 100.78, 32.8 97.13, 25.68 92.96 C18.56 88.78, 11.31 82.79, 7.19 75.84 C3.07 68.9, 1.18 59.54, 0.94 51.27 C0.71 43, 1.95 33.58, 5.77 26.23 C9.59 18.87, 15.9 11.34, 23.88 7.12 C31.87 2.91, 48.3 2.05, 53.69 0.95 C59.07 -0.16, 56.24 -0.16, 56.19 0.5 M42.13 0.9 C50.07 -0.94, 61 1.19, 68.81 4.28 C76.61 7.36, 83.97 12.73, 88.94 19.41 C93.91 26.08, 97.43 36.11, 98.6 44.34 C99.77 52.56, 98.74 61.38, 95.94 68.77 C93.13 76.16, 88.14 83.72, 81.77 88.68 C75.4 93.65, 66.19 97.21, 57.72 98.55 C49.25 99.89, 38.76 99.88, 30.95 96.71 C23.14 93.54, 15.84 86.14, 10.84 79.52 C5.83 72.9, 1.93 65.23, 0.94 56.98 C-0.04 48.74, 1.81 37.75, 4.94 30.04 C8.06 22.34, 13.37 15.45, 19.69 10.75 C26.01 6.05, 39.09 3.13, 42.88 1.84 C46.66 0.54, 42.12 2.21, 42.39 2.95" stroke="#1e1e1e" stroke-width="1" fill="none"></path></g><g transform="translate(39.111328115965534 47.64466094067262) rotate(0 21.03333282470703 12.5)"><text x="21.03333282470703" y="0" font-family="Virgil, Segoe UI Emoji" font-size="20px" fill="#1e1e1e" text-anchor="middle" style="white-space: pre;" direction="ltr" dominant-baseline="text-before-edge">root</text></g><g stroke-linecap="round" transform="translate(14 154) rotate(0 48 48)"><path d="M69.02 5.13 C76.15 8.15, 83.37 15.6, 87.82 22.49 C92.26 29.39, 95.16 38.49, 95.71 46.51 C96.26 54.52, 94.6 63.51, 91.12 70.59 C87.63 77.67, 81.59 84.73, 74.82 88.98 C68.05 93.24, 58.73 95.87, 50.49 96.13 C42.25 96.4, 32.53 94.08, 25.37 90.56 C18.2 87.05, 11.75 81.67, 7.51 75.04 C3.27 68.41, 0.15 58.98, -0.07 50.78 C-0.29 42.58, 2.55 32.97, 6.19 25.85 C9.83 18.74, 15.24 12.24, 21.76 8.08 C28.27 3.92, 36.42 0.95, 45.28 0.88 C54.14 0.8, 69.17 5.75, 74.92 7.63 C80.67 9.5, 80.35 11.25, 79.79 12.11 M70.44 5.47 C77.61 8.01, 84.05 14.87, 88.07 21.26 C92.09 27.66, 94.31 35.95, 94.56 43.85 C94.82 51.75, 93.02 61.25, 89.61 68.68 C86.19 76.12, 80.33 84.12, 74.09 88.47 C67.84 92.82, 59.84 94.57, 52.13 94.78 C44.43 95, 35.04 93.14, 27.85 89.76 C20.66 86.38, 13.61 81.12, 8.98 74.52 C4.35 67.93, 0.99 58.35, 0.09 50.19 C-0.81 42.03, 0.25 32.64, 3.58 25.57 C6.9 18.51, 13.14 11.99, 20.03 7.81 C26.93 3.64, 36.49 1.19, 44.95 0.52 C53.41 -0.15, 66.78 2.72, 70.81 3.78 C74.83 4.85, 69.46 6.16, 69.08 6.89" stroke="#1e1e1e" stroke-width="1" fill="none"></path></g><g stroke-linecap="round" transform="translate(148 152) rotate(0 48 48)"><path d="M63.73 3.43 C71.33 5.16, 79.71 10.43, 85.06 16.5 C90.4 22.57, 94.58 31.87, 95.81 39.85 C97.03 47.83, 95.17 56.89, 92.38 64.4 C89.59 71.92, 85 79.76, 79.06 84.93 C73.12 90.1, 64.62 94.06, 56.74 95.43 C48.87 96.8, 39.36 95.9, 31.82 93.16 C24.27 90.43, 16.8 85.22, 11.47 79.02 C6.14 72.82, 1.18 63.87, -0.17 55.96 C-1.52 48.05, 0.33 39.05, 3.37 31.57 C6.41 24.09, 11.89 16.15, 18.08 11.07 C24.28 5.99, 31.96 2.12, 40.54 1.09 C49.11 0.05, 64.08 3.69, 69.55 4.85 C75.02 6.01, 73.83 7.23, 73.35 8.04 M31.97 2.64 C39.1 -0.5, 49.2 -1.28, 57.18 0.15 C65.15 1.59, 73.85 6.14, 79.82 11.25 C85.78 16.37, 90.47 23.22, 92.99 30.85 C95.51 38.48, 96.52 48.77, 94.94 57.03 C93.35 65.3, 88.8 74.38, 83.48 80.42 C78.16 86.46, 70.24 91.01, 63.02 93.27 C55.81 95.53, 47.82 95.62, 40.2 93.98 C32.58 92.33, 23.69 88.25, 17.3 83.42 C10.91 78.59, 4.75 72.36, 1.86 64.99 C-1.03 57.61, -1.66 47.18, -0.04 39.18 C1.59 31.18, 6.36 23.27, 11.61 16.98 C16.86 10.69, 27.81 3.63, 31.46 1.45 C35.12 -0.73, 33.42 2.89, 33.55 3.9" stroke="#1e1e1e" stroke-width="1" fill="none"></path></g><g stroke-linecap="round" transform="translate(630 153) rotate(0 48 48)"><path d="M59.45 1.36 C67.04 2.5, 76.05 7.55, 82 13.08 C87.96 18.6, 93.11 26.56, 95.19 34.49 C97.27 42.42, 96.81 52.72, 94.5 60.63 C92.19 68.54, 87.1 76.44, 81.34 81.94 C75.58 87.44, 67.44 91.65, 59.95 93.65 C52.47 95.64, 44.08 95.8, 36.44 93.91 C28.8 92.02, 19.92 87.89, 14.14 82.32 C8.36 76.75, 3.99 68.08, 1.74 60.5 C-0.51 52.92, -1.39 44.67, 0.64 36.83 C2.68 29, 8.16 19.25, 13.95 13.48 C19.74 7.72, 27.08 4.04, 35.38 2.25 C43.68 0.45, 58.62 2.34, 63.76 2.7 C68.9 3.05, 66.46 3.69, 66.22 4.39 M58.99 0.38 C66.22 1.43, 74.49 6.96, 80.19 12.42 C85.89 17.89, 90.99 25.2, 93.19 33.19 C95.38 41.18, 95.19 52.29, 93.34 60.37 C91.48 68.45, 87.57 76, 82.04 81.69 C76.52 87.39, 67.66 92.51, 60.18 94.54 C52.7 96.57, 44.9 95.97, 37.16 93.9 C29.42 91.83, 19.58 87.55, 13.76 82.13 C7.95 76.72, 4.52 69.15, 2.28 61.41 C0.03 53.67, -1.27 43.66, 0.31 35.69 C1.88 27.71, 6.11 18.96, 11.74 13.57 C17.37 8.19, 26 5.49, 34.08 3.39 C42.15 1.29, 55.84 1.26, 60.19 0.97 C64.54 0.68, 60.47 0.68, 60.15 1.66" stroke="#1e1e1e" stroke-width="1" fill="none"></path></g><g stroke-linecap="round" transform="translate(148.97056274847705 290) rotate(0 48 48)"><path d="M54.33 -0.06 C61.86 0.3, 70.85 5.57, 77.13 10.62 C83.4 15.66, 88.79 22.94, 91.96 30.22 C95.14 37.51, 97 46.54, 96.16 54.32 C95.32 62.09, 92.03 70.49, 86.91 76.89 C81.78 83.28, 73.05 89.42, 65.42 92.69 C57.78 95.97, 48.99 97.5, 41.12 96.54 C33.25 95.57, 24.26 92.03, 18.17 86.91 C12.08 81.79, 7.53 73.53, 4.59 65.83 C1.64 58.14, -0.41 48.6, 0.48 40.74 C1.37 32.89, 4.9 24.96, 9.92 18.69 C14.94 12.43, 22.54 6.2, 30.58 3.15 C38.63 0.11, 53.25 0.41, 58.17 0.43 C63.1 0.46, 60.46 2.61, 60.12 3.32 M68.47 5.7 C75.98 7.96, 82.7 12.65, 87.46 19.13 C92.22 25.61, 96.35 36.55, 97.03 44.58 C97.71 52.61, 94.94 60.43, 91.54 67.32 C88.15 74.21, 83.27 81.42, 76.66 85.94 C70.05 90.47, 60.19 93.36, 51.9 94.46 C43.61 95.56, 34.12 95.71, 26.93 92.56 C19.73 89.41, 13.34 82.33, 8.75 75.58 C4.15 68.84, 0.11 59.83, -0.64 52.08 C-1.39 44.33, 0.95 36.05, 4.25 29.06 C7.55 22.07, 12.65 14.79, 19.16 10.16 C25.67 5.52, 35.19 2.45, 43.3 1.24 C51.42 0.03, 63.74 2.23, 67.83 2.9 C71.92 3.57, 68.23 4.08, 67.86 5.26" stroke="#1e1e1e" stroke-width="1" fill="none"></path></g><g stroke-linecap="round" transform="translate(280.47056274847705 291.22056274847705) rotate(0 48 48)"><path d="M26.96 5.59 C33.23 1.57, 41.69 0.57, 49.67 0.89 C57.64 1.21, 68.01 3.26, 74.78 7.53 C81.56 11.81, 86.91 19.48, 90.31 26.53 C93.71 33.58, 95.67 42.04, 95.2 49.82 C94.73 57.59, 91.6 66.38, 87.49 73.17 C83.38 79.96, 77.55 86.85, 70.55 90.54 C63.55 94.24, 53.62 95.74, 45.47 95.37 C37.33 95, 28.24 92.66, 21.65 88.33 C15.07 83.99, 9.41 76.46, 5.94 69.35 C2.48 62.24, 0.47 53.54, 0.86 45.65 C1.26 37.76, 3.5 29.03, 8.31 22 C13.12 14.98, 25.15 6.76, 29.73 3.5 C34.32 0.23, 35.22 1.63, 35.81 2.4 M69.28 5.36 C76.42 8.45, 83.37 16.02, 88 22.49 C92.63 28.95, 96.64 36.15, 97.06 44.13 C97.47 52.1, 94.37 63.25, 90.48 70.35 C86.6 77.44, 80.37 82.45, 73.76 86.71 C67.14 90.97, 58.64 95.28, 50.82 95.89 C43 96.5, 33.82 94.03, 26.83 90.38 C19.84 86.72, 13.5 80.56, 8.87 73.94 C4.24 67.32, -0.24 58.54, -0.95 50.64 C-1.66 42.74, 1.09 33.42, 4.61 26.53 C8.12 19.64, 13.34 13.66, 20.14 9.32 C26.94 4.98, 37.2 1.33, 45.39 0.5 C53.58 -0.33, 65.21 3.46, 69.26 4.35 C73.3 5.24, 69.82 5.26, 69.65 5.82" stroke="#1e1e1e" stroke-width="1" fill="none"></path></g><g stroke-linecap="round" transform="translate(406.4705627484773 290.22056274847716) rotate(0 48 48)"><path d="M66.01 3.26 C73.36 5.3, 82.11 11.6, 87.1 18.27 C92.1 24.95, 95.01 35.03, 95.97 43.3 C96.94 51.57, 96.26 60.53, 92.89 67.88 C89.52 75.22, 82.28 82.79, 75.74 87.36 C69.21 91.93, 61.49 94.45, 53.68 95.29 C45.88 96.13, 36.37 95.63, 28.93 92.38 C21.48 89.13, 13.84 82.12, 9 75.8 C4.16 69.48, 0.63 62.33, -0.11 54.46 C-0.86 46.59, 1.34 36.06, 4.54 28.57 C7.74 21.08, 12.68 14.15, 19.11 9.51 C25.54 4.86, 34.41 1.33, 43.12 0.69 C51.83 0.05, 66.3 4.43, 71.37 5.66 C76.44 6.89, 73.95 7.29, 73.56 8.08 M52.47 0.89 C60.53 0.9, 70.37 5.31, 76.73 9.72 C83.1 14.14, 87.28 20.06, 90.65 27.36 C94.01 34.67, 97.69 45.53, 96.92 53.55 C96.14 61.57, 90.94 69.09, 85.99 75.48 C81.04 81.87, 74.27 88.37, 67.21 91.88 C60.16 95.4, 51.42 97.4, 43.65 96.58 C35.89 95.77, 27.34 91.88, 20.6 87 C13.86 82.12, 6.85 74.61, 3.2 67.32 C-0.45 60.03, -2.22 51.05, -1.32 43.25 C-0.42 35.44, 3.97 26.97, 8.58 20.49 C13.19 14.01, 19.06 7.62, 26.35 4.38 C33.64 1.14, 48.12 1.58, 52.32 1.03 C56.52 0.47, 51.87 0.22, 51.54 1.04" stroke="#1e1e1e" stroke-width="1" fill="none"></path></g><g stroke-linecap="round" transform="translate(545 292) rotate(0 48 48)"><path d="M56.12 0.05 C63.71 0.82, 73.31 6.7, 79.52 11.84 C85.73 16.98, 90.66 23.41, 93.36 30.9 C96.07 38.39, 97.16 48.63, 95.77 56.79 C94.39 64.95, 90.23 73.89, 85.08 79.87 C79.93 85.84, 72.53 89.95, 64.89 92.63 C57.24 95.31, 47.03 97.44, 39.2 95.96 C31.36 94.47, 23.95 89.13, 17.89 83.71 C11.82 78.29, 5.6 70.85, 2.79 63.44 C-0.02 56.04, -0.48 47.02, 1.04 39.29 C2.55 31.55, 6.81 23.25, 11.9 17.02 C17 10.8, 23 4.48, 31.6 1.94 C40.19 -0.6, 57 0.98, 63.46 1.79 C69.93 2.6, 70.53 6.02, 70.38 6.79 M45.38 -0.05 C52.69 -1.05, 61.86 2.46, 68.81 6.41 C75.77 10.35, 82.82 16.92, 87.12 23.61 C91.42 30.3, 94.02 39, 94.62 46.57 C95.22 54.13, 94.18 62.11, 90.72 69 C87.25 75.9, 80.47 83.64, 73.83 87.93 C67.19 92.21, 58.78 94.15, 50.89 94.72 C43 95.28, 33.62 94.75, 26.51 91.31 C19.4 87.87, 12.46 80.74, 8.22 74.07 C3.98 67.41, 1.73 59.43, 1.06 51.32 C0.39 43.21, 0.75 32.48, 4.2 25.43 C7.65 18.37, 14.78 13.15, 21.76 8.99 C28.75 4.83, 42.04 1.59, 46.13 0.48 C50.22 -0.63, 46.29 1.49, 46.3 2.32" stroke="#1e1e1e" stroke-width="1" fill="none"></path></g><g stroke-linecap="round" transform="translate(406 416.0000000000001) rotate(0 48 48)"><path d="M68.07 5.5 C75.2 7.98, 82.67 14.02, 87.16 20.3 C91.64 26.57, 94.36 35.14, 94.97 43.13 C95.59 51.13, 94.03 60.84, 90.85 68.25 C87.67 75.65, 82.48 83.04, 75.89 87.56 C69.29 92.07, 59.48 94.68, 51.28 95.32 C43.09 95.96, 33.71 94.82, 26.72 91.4 C19.73 87.98, 13.87 81.5, 9.33 74.8 C4.8 68.11, 0.37 59.22, -0.49 51.23 C-1.35 43.25, 0.8 33.98, 4.15 26.88 C7.5 19.78, 12.86 13.23, 19.62 8.62 C26.38 4.01, 35.47 -0.52, 44.7 -0.8 C53.94 -1.08, 69.48 4.82, 75.04 6.95 C80.61 9.07, 78.81 11.31, 78.09 11.95 M38.26 1.12 C45.49 -1.18, 54.43 1.2, 61.83 3.72 C69.23 6.24, 76.91 10.41, 82.66 16.24 C88.4 22.07, 94.65 30.83, 96.32 38.69 C97.99 46.55, 95.56 56.17, 92.67 63.4 C89.78 70.64, 84.64 76.91, 78.99 82.08 C73.33 87.24, 66.58 92.42, 58.76 94.39 C50.95 96.37, 39.89 96.51, 32.09 93.93 C24.29 91.34, 17.34 84.97, 11.96 78.88 C6.57 72.78, 1.47 65.11, -0.22 57.33 C-1.91 49.56, -0.67 39.93, 1.81 32.24 C4.29 24.54, 8.76 16.13, 14.66 11.17 C20.56 6.2, 33.1 4.18, 37.22 2.46 C41.35 0.74, 39.12 0.29, 39.41 0.86" stroke="#1e1e1e" stroke-width="1" fill="none"></path></g><g stroke-linecap="round"><g transform="translate(58 113) rotate(0 0.42265596581620457 18.860519180074334)"><path d="M0.28 -0.77 C0.76 5.53, 1.46 32.02, 1.87 38.49 M-1.03 1.44 C-0.63 7.31, 0.29 30.3, 0.86 36.62" stroke="#1e1e1e" stroke-width="1" fill="none"></path></g><g transform="translate(58 113) rotate(0 0.42265596581620457 18.860519180074334)"><path d="M-7.98 18.99 C-4.24 24.14, -3.3 25.96, 2.3 37.07 M-7.18 19.4 C-4.49 22.62, -3.49 26.02, 1.8 36.47" stroke="#1e1e1e" stroke-width="1" fill="none"></path></g><g transform="translate(58 113) rotate(0 0.42265596581620457 18.860519180074334)"><path d="M5.01 18.17 C5.96 23.53, 4.11 25.53, 2.3 37.07 M5.81 18.59 C5.72 22.08, 3.93 25.66, 1.8 36.47" stroke="#1e1e1e" stroke-width="1" fill="none"></path></g></g><mask></mask><g stroke-linecap="round"><g transform="translate(110.96031265902457 199.78916659819015) rotate(0 17.57446118311134 0.20984072296803902)"><path d="M0.16 -0.88 C6.12 -1.14, 30.3 -0.68, 36.36 -0.51 M-1.21 1.28 C4.58 1.68, 29.45 0.7, 35.67 0.75" stroke="#1e1e1e" stroke-width="1" fill="none"></path></g><g transform="translate(110.96031265902457 199.78916659819015) rotate(0 17.57446118311134 0.20984072296803902)"><path d="M17.61 7.9 C23.91 5.87, 30.8 2.94, 36.41 -0.77 M19.59 7.99 C22.77 6.47, 26.84 3.32, 35.11 1.51" stroke="#1e1e1e" stroke-width="1" fill="none"></path></g><g transform="translate(110.96031265902457 199.78916659819015) rotate(0 17.57446118311134 0.20984072296803902)"><path d="M17.4 -4.37 C23.88 -2.1, 30.84 -0.75, 36.41 -0.77 M19.37 -4.28 C22.69 -2.76, 26.8 -2.87, 35.11 1.51" stroke="#1e1e1e" stroke-width="1" fill="none"></path></g></g><mask></mask><g stroke-linecap="round"><g transform="translate(246.88689790865192 193.1062621724904) rotate(0 189.43310676832834 1.4816001378843282)"><path d="M-0.27 0.35 C63.07 1.05, 316.15 3.06, 379.14 3.47 M1.79 -0.51 C65.15 -0.1, 316.29 0.91, 378.78 1.69" stroke="#1e1e1e" stroke-width="1" fill="none"></path></g><g transform="translate(246.88689790865192 193.1062621724904) rotate(0 189.43310676832834 1.4816001378843282)"><path d="M351.1 13.6 C357.98 8.94, 363.24 7.34, 380.63 3.29 M350.71 12.51 C360.84 8.14, 371.22 4.81, 378.76 1.48" stroke="#1e1e1e" stroke-width="1" fill="none"></path></g><g transform="translate(246.88689790865192 193.1062621724904) rotate(0 189.43310676832834 1.4816001378843282)"><path d="M351.26 -6.92 C357.99 -6.98, 363.21 -3.98, 380.63 3.29 M350.86 -8.01 C361.08 -5.03, 371.41 -1.01, 378.76 1.48" stroke="#1e1e1e" stroke-width="1" fill="none"></path></g></g><mask></mask><g stroke-linecap="round"><g transform="translate(193 252) rotate(0 0.9900917742401134 16.232286826940253)"><path d="M-0.92 0.51 C-0.6 6.08, 2.07 27.68, 2.9 32.73 M0.8 -0.26 C0.86 5.02, 1.39 25.69, 1.9 30.98" stroke="#1e1e1e" stroke-width="1" fill="none"></path></g><g transform="translate(193 252) rotate(0 0.9900917742401134 16.232286826940253)"><path d="M-3.74 16.08 C-1.11 23.36, -1.24 28.27, 2.42 30.89 M-4.97 15.87 C-2.07 22.09, -0.05 26.38, 2.45 30.57" stroke="#1e1e1e" stroke-width="1" fill="none"></path></g><g transform="translate(193 252) rotate(0 0.9900917742401134 16.232286826940253)"><path d="M7.24 15.47 C5.64 22.9, 1.29 28.04, 2.42 30.89 M6 15.26 C5.11 21.6, 3.33 26.09, 2.45 30.57" stroke="#1e1e1e" stroke-width="1" fill="none"></path></g></g><mask></mask><g stroke-linecap="round"><g transform="translate(247 338) rotate(0 15.816557392105494 0.3979413829096643)"><path d="M-0.64 0.98 C4.71 1.32, 26.77 1.29, 32.27 1.11 M1.23 0.44 C6.43 0.56, 26.37 -0.55, 31.47 -0.44" stroke="#1e1e1e" stroke-width="1" fill="none"></path></g><g transform="translate(247 338) rotate(0 15.816557392105494 0.3979413829096643)"><path d="M17.85 5.71 C22.75 4.09, 25.81 2.33, 31.79 -1.5 M17.02 4.83 C22.18 3.83, 26.84 1.28, 31.23 0.07" stroke="#1e1e1e" stroke-width="1" fill="none"></path></g><g transform="translate(247 338) rotate(0 15.816557392105494 0.3979413829096643)"><path d="M17.62 -5.24 C22.51 -3.42, 25.64 -1.74, 31.79 -1.5 M16.79 -6.11 C21.95 -3.58, 26.67 -2.6, 31.23 0.07" stroke="#1e1e1e" stroke-width="1" fill="none"></path></g></g><mask></mask><g stroke-linecap="round"><g transform="translate(376 337) rotate(0 13.6291746228747 0.026047632470749704)"><path d="M-0.15 1.09 C4.73 0.92, 24.16 -0.69, 28.94 -1.03 M-1.68 0.61 C3.06 0.57, 23.09 0.1, 27.96 -0.04" stroke="#1e1e1e" stroke-width="1" fill="none"></path></g><g transform="translate(376 337) rotate(0 13.6291746228747 0.026047632470749704)"><path d="M15.78 5.19 C16.92 3.28, 20.66 2.72, 26.74 -0.91 M14.19 4.89 C18.65 4.36, 22.02 2.72, 28.34 -0.68" stroke="#1e1e1e" stroke-width="1" fill="none"></path></g><g transform="translate(376 337) rotate(0 13.6291746228747 0.026047632470749704)"><path d="M15.53 -4.73 C16.73 -3.92, 20.54 -1.76, 26.74 -0.91 M13.94 -5.02 C18.53 -2.75, 21.97 -1.56, 28.34 -0.68" stroke="#1e1e1e" stroke-width="1" fill="none"></path></g></g><mask></mask><g stroke-linecap="round"><g transform="translate(502 339) rotate(0 21.08484159447255 0.021755335154011846)"><path d="M-0.61 0.37 C6.39 0.39, 35.43 -0.54, 42.78 -0.59 M1.27 -0.48 C8.02 -0.25, 34.77 0.32, 41.72 0.64" stroke="#1e1e1e" stroke-width="1" fill="none"></path></g><g transform="translate(502 339) rotate(0 21.08484159447255 0.021755335154011846)"><path d="M21.9 6.97 C27.83 5.81, 36.43 1.49, 41.78 1.78 M21.51 6.34 C25.21 6.49, 29.72 4.73, 40.94 -0.15" stroke="#1e1e1e" stroke-width="1" fill="none"></path></g><g transform="translate(502 339) rotate(0 21.08484159447255 0.021755335154011846)"><path d="M22.38 -7.73 C28.04 -3.51, 36.47 -2.44, 41.78 1.78 M21.98 -8.36 C25.52 -5.25, 29.92 -4.03, 40.94 -0.15" stroke="#1e1e1e" stroke-width="1" fill="none"></path></g></g><mask></mask><g stroke-linecap="round"><g transform="translate(450 387) rotate(0 1.7337684717029447 14.041204450689236)"><path d="M-0.36 0.27 C0.34 4.73, 3.26 23.18, 3.83 27.81 M1.65 -0.64 C2.2 4.44, 2.16 23.8, 2.8 28.72" stroke="#1e1e1e" stroke-width="1" fill="none"></path></g><g transform="translate(450 387) rotate(0 1.7337684717029447 14.041204450689236)"><path d="M-2.65 15.07 C-2.75 17.79, -0.88 23.35, 4.25 28.51 M-3.27 15.12 C-0.42 19.36, 1.06 24.97, 3.41 28.38" stroke="#1e1e1e" stroke-width="1" fill="none"></path></g><g transform="translate(450 387) rotate(0 1.7337684717029447 14.041204450689236)"><path d="M7.34 14.5 C4.55 17.35, 3.73 23.06, 4.25 28.51 M6.73 14.55 C6.1 19.07, 4.1 24.87, 3.41 28.38" stroke="#1e1e1e" stroke-width="1" fill="none"></path></g></g><mask></mask></svg>